<?xml version="1.0" encoding="utf-8"?>
<!DOCTYPE svg PUBLIC "-//W3C//DTD SVG 1.1//EN" "http://www.w3.org/Graphics/SVG/1.1/DTD/svg11.dtd">
<svg version="1.1" xmlns="http://www.w3.org/2000/svg" x="0px" y="0px" viewBox="0 0 1000 1000"
     enable-background="new 0 0 1000 1000" xml:space="preserve">
<g>
  <path
    d="M358.4,68.8H124.3C61.2,68.8,10,120,10,183.1v633.8c0,63.1,51.2,114.3,114.3,114.3h234.1c63.1,0,114.3-51.2,114.3-114.3V183.1C472.7,120,421.5,68.8,358.4,68.8L358.4,68.8z M415.6,816.9c0,31.6-25.6,57.2-57.2,57.2H124.3c-31.6,0-57.2-25.5-57.2-57.2V183.1c0-31.6,25.6-57.2,57.2-57.2h234.1c31.6,0,57.2,25.6,57.2,57.2V816.9L415.6,816.9z"/>
  <path
    d="M875.7,68.8H641.6c-63.1,0-114.3,51.2-114.3,114.3v633.8c0,63.1,51.2,114.3,114.3,114.3h234.1c63.1,0,114.3-51.2,114.3-114.3V183.1C990,120,938.8,68.8,875.7,68.8L875.7,68.8z M932.8,816.9c0,31.6-25.6,57.2-57.2,57.2H641.6c-31.6,0-57.2-25.5-57.2-57.2V183.1c0-31.6,25.6-57.2,57.2-57.2h234.1c31.6,0,57.2,25.6,57.2,57.2V816.9L932.8,816.9z"/>
</g>
</svg>